<svg width="16" height="16" viewBox="0 0 16 16" fill="none" xmlns="http://www.w3.org/2000/svg">
<path d="M12.7074 5.23599C12.6146 5.14306 12.5043 5.06935 12.3829 5.01905C12.2615 4.96876 12.1315 4.94287 12.0001 4.94287C11.8687 4.94287 11.7386 4.96876 11.6173 5.01905C11.4959 5.06935 11.3856 5.14306 11.2928 5.23599L8.23542 8.29266C8.17291 8.35515 8.08814 8.39025 7.99975 8.39025C7.91136 8.39025 7.82659 8.35515 7.76408 8.29266L4.70742 5.23599C4.51991 5.04839 4.26556 4.94297 4.00032 4.94291C3.73508 4.94284 3.48068 5.04815 3.29308 5.23566C3.10549 5.42317 3.00006 5.67752 3 5.94276C2.99994 6.20799 3.10524 6.46239 3.29275 6.64999L6.35008 9.70732C6.56676 9.92402 6.82399 10.0959 7.1071 10.2132C7.39021 10.3305 7.69365 10.3908 8.00008 10.3908C8.30652 10.3908 8.60996 10.3305 8.89307 10.2132C9.17618 10.0959 9.43341 9.92402 9.65008 9.70732L12.7074 6.64999C12.8949 6.46246 13.0002 6.20816 13.0002 5.94299C13.0002 5.67783 12.8949 5.42352 12.7074 5.23599Z" fill="#848A9D"/>
</svg>
