<svg width="6" height="10" viewBox="0 0 6 10" fill="none" xmlns="http://www.w3.org/2000/svg">
<path d="M3.5594 4.76416C3.59044 4.79512 3.61507 4.83191 3.63187 4.8724C3.64868 4.9129 3.65733 4.95631 3.65733 5.00016C3.65733 5.044 3.64868 5.08742 3.63187 5.12791C3.61507 5.16841 3.59044 5.20519 3.5594 5.23616L0.50207 8.29283C0.314474 8.48033 0.209049 8.73468 0.208986 8.99992C0.208923 9.26516 0.314229 9.51956 0.501737 9.70716C0.689244 9.89476 0.943594 10.0002 1.20883 10.0002C1.47407 10.0003 1.72847 9.895 1.91607 9.70749L4.97339 6.65016C5.41022 6.21214 5.65552 5.61877 5.65552 5.00016C5.65552 4.38155 5.41022 3.78818 4.9734 3.35016L1.91607 0.292823C1.72847 0.105315 1.47407 9.17119e-06 1.20883 7.20905e-05C0.943595 0.000134056 0.689245 0.105561 0.501737 0.293158C0.31423 0.480754 0.208924 0.735154 0.208987 1.00039C0.20905 1.26563 0.314474 1.51998 0.502071 1.70749L3.5594 4.76416Z" fill="#848A9D"/>
</svg>
