<svg width="20" height="20" viewBox="0 0 20 20" fill="none" xmlns="http://www.w3.org/2000/svg">
<path d="M14.5834 0H5.41668C4.20158 0.00154355 3.03668 0.484924 2.17748 1.34413C1.31827 2.20334 0.834887 3.36823 0.833344 4.58333V17.06C0.83397 17.6436 1.00968 18.2137 1.33775 18.6964C1.66582 19.1791 2.13116 19.5522 2.6736 19.7676C3.21603 19.983 3.81061 20.0307 4.38045 19.9046C4.95029 19.7784 5.46918 19.4842 5.87001 19.06L9.96335 14.7267L14.1409 19.1017C14.543 19.5227 15.0619 19.8137 15.6308 19.9373C16.1997 20.0609 16.7925 20.0114 17.3331 19.7952C17.8736 19.5791 18.3371 19.2061 18.6639 18.7242C18.9907 18.2424 19.1658 17.6738 19.1667 17.0917V4.58333C19.1651 3.36823 18.6818 2.20334 17.8226 1.34413C16.9633 0.484924 15.7985 0.00154355 14.5834 0V0ZM16.6667 17.0917C16.6665 17.1748 16.6415 17.2559 16.5949 17.3247C16.5483 17.3935 16.4821 17.4467 16.405 17.4776C16.3279 17.5086 16.2432 17.5157 16.162 17.4981C16.0808 17.4806 16.0067 17.4392 15.9492 17.3792L10.8659 12.0533C10.7487 11.9307 10.6079 11.8332 10.4519 11.7667C10.2958 11.7002 10.1279 11.6662 9.95835 11.6667C9.78883 11.6672 9.62117 11.7021 9.46559 11.7695C9.31001 11.8368 9.16976 11.9351 9.05335 12.0583L4.05335 17.3458C3.99755 17.4088 3.92325 17.4526 3.84109 17.4709C3.75892 17.4891 3.67308 17.4809 3.59585 17.4475C3.51628 17.4197 3.44779 17.3669 3.40052 17.2971C3.35324 17.2274 3.32969 17.1442 3.33335 17.06V4.58333C3.33335 4.0308 3.55284 3.50089 3.94354 3.11019C4.33424 2.71949 4.86415 2.5 5.41668 2.5H14.5834C15.1359 2.5 15.6658 2.71949 16.0565 3.11019C16.4472 3.50089 16.6667 4.0308 16.6667 4.58333V17.0917Z" fill="white"/>
</svg>
