<svg width="20" height="20" viewBox="0 0 20 20" fill="none" xmlns="http://www.w3.org/2000/svg">
<path d="M18.3532 1.89834C17.8333 1.46511 17.2238 1.1524 16.5687 0.982665C15.9135 0.812935 15.2289 0.790399 14.564 0.916676L11.8282 1.49001C11.1484 1.6116 10.5156 1.91908 9.99988 2.37834C9.49496 1.92246 8.87317 1.61604 8.20405 1.49334L5.40322 0.910009C4.74293 0.789941 4.06434 0.81634 3.41537 0.98734C2.76641 1.15834 2.16292 1.46977 1.64754 1.89963C1.13216 2.32948 0.717467 2.86727 0.43276 3.475C0.148053 4.08273 0.000280211 4.74556 -0.000117658 5.41668V13.5767C-0.00160348 14.6472 0.372202 15.6843 1.05628 16.5077C1.74036 17.3311 2.69142 17.8886 3.74405 18.0833L8.58322 19.0392C9.04897 19.1241 9.52145 19.1668 9.99488 19.1667C10.4778 19.1664 10.9598 19.1226 11.4349 19.0358L16.2365 18.0833C17.292 17.8914 18.2467 17.3354 18.9343 16.512C19.622 15.6887 19.9991 14.6502 19.9999 13.5775V5.41668C20.0005 4.7453 19.8533 4.08202 19.5688 3.47395C19.2842 2.86588 18.8692 2.32794 18.3532 1.89834ZM8.74988 16.5242L4.21072 15.6275C3.73061 15.5403 3.29637 15.2873 2.98371 14.9126C2.67106 14.538 2.49983 14.0655 2.49988 13.5775V5.41668C2.50141 4.86548 2.72071 4.33722 3.11 3.94699C3.49929 3.55677 4.02702 3.3362 4.57822 3.33334C4.69391 3.33312 4.80939 3.34344 4.92322 3.36418L7.72405 3.94751C8.01185 3.99997 8.27213 4.15171 8.45957 4.37631C8.64702 4.60091 8.74975 4.88414 8.74988 5.17668V16.5242ZM17.4999 13.5775C17.499 14.0684 17.3251 14.5433 17.0089 14.9188C16.6927 15.2943 16.2543 15.5464 15.7707 15.6308L11.2499 16.5242V5.17668C11.2516 4.87866 11.359 4.59091 11.553 4.36463C11.7469 4.13834 12.0148 3.98817 12.309 3.94084L15.044 3.36834C15.3441 3.31381 15.6526 3.32583 15.9475 3.40357C16.2425 3.4813 16.5167 3.62285 16.751 3.81822C16.9852 4.01359 17.1737 4.25801 17.3031 4.53421C17.4325 4.81041 17.4997 5.11166 17.4999 5.41668V13.5775Z" fill="#222427"/>
</svg>
