<svg xmlns="http://www.w3.org/2000/svg" width="20" height="20" viewBox="0 0 20 20" fill="none">
  <g clip-path="url(#clip0_2924_14725)">
    <path d="M14.583 0H5.41634C4.20124 0.00154355 3.03635 0.484924 2.17714 1.34413C1.31793 2.20334 0.834551 3.36823 0.833008 4.58333V17.06C0.833635 17.6436 1.00934 18.2137 1.33741 18.6964C1.66548 19.1791 2.13082 19.5522 2.67326 19.7676C3.2157 19.983 3.81028 20.0307 4.38012 19.9046C4.94996 19.7784 5.46884 19.4842 5.86968 19.06L9.96301 14.7267L14.1405 19.1017C14.5426 19.5227 15.0615 19.8137 15.6304 19.9373C16.1993 20.0609 16.7922 20.0114 17.3328 19.7952C17.8733 19.5791 18.3368 19.2061 18.6636 18.7242C18.9903 18.2424 19.1654 17.6738 19.1664 17.0917V4.58333C19.1648 3.36823 18.6814 2.20334 17.8222 1.34413C16.963 0.484924 15.7981 0.00154355 14.583 0V0ZM16.6664 17.0917C16.6662 17.1748 16.6412 17.2559 16.5946 17.3247C16.5479 17.3935 16.4818 17.4467 16.4047 17.4776C16.3275 17.5086 16.2429 17.5157 16.1617 17.4981C16.0805 17.4806 16.0063 17.4392 15.9489 17.3792L10.8655 12.0533C10.7484 11.9307 10.6075 11.8332 10.4515 11.7667C10.2955 11.7002 10.1276 11.6662 9.95801 11.6667C9.78849 11.6672 9.62084 11.7021 9.46526 11.7695C9.30968 11.8368 9.16942 11.9351 9.05301 12.0583L4.05301 17.3458C3.99721 17.4088 3.92292 17.4526 3.84075 17.4709C3.75858 17.4891 3.67275 17.4809 3.59551 17.4475C3.51595 17.4197 3.44746 17.3669 3.40018 17.2971C3.35291 17.2274 3.32935 17.1442 3.33301 17.06V4.58333C3.33301 4.0308 3.5525 3.50089 3.9432 3.11019C4.33391 2.71949 4.86381 2.5 5.41634 2.5H14.583C15.1356 2.5 15.6655 2.71949 16.0562 3.11019C16.4469 3.50089 16.6664 4.0308 16.6664 4.58333V17.0917Z" fill="#5E617B"/>
  </g>
  <defs>
    <clipPath id="clip0_2924_14725">
      <rect width="20" height="20" fill="white"/>
    </clipPath>
  </defs>
</svg>