<svg width="17" height="16" viewBox="0 0 17 16" fill="none" xmlns="http://www.w3.org/2000/svg">
<g clip-path="url(#clip0_1315_6795)">
<path d="M12.5833 1.33333H12.25V1C12.25 0.734784 12.1446 0.48043 11.9571 0.292893C11.7696 0.105357 11.5152 0 11.25 0V0C10.9848 0 10.7304 0.105357 10.5429 0.292893C10.3554 0.48043 10.25 0.734784 10.25 1V1.33333H6.25V1C6.25 0.734784 6.14464 0.48043 5.95711 0.292893C5.76957 0.105357 5.51522 0 5.25 0V0C4.98478 0 4.73043 0.105357 4.54289 0.292893C4.35536 0.48043 4.25 0.734784 4.25 1V1.33333H3.91667C2.94421 1.33333 2.01158 1.71964 1.32394 2.40728C0.636308 3.09491 0.25 4.02754 0.25 5L0.25 12.3333C0.25 13.3058 0.636308 14.2384 1.32394 14.9261C2.01158 15.6137 2.94421 16 3.91667 16H12.5833C13.5558 16 14.4884 15.6137 15.1761 14.9261C15.8637 14.2384 16.25 13.3058 16.25 12.3333V5C16.25 4.02754 15.8637 3.09491 15.1761 2.40728C14.4884 1.71964 13.5558 1.33333 12.5833 1.33333ZM12.5833 14H3.91667C3.47464 14 3.05072 13.8244 2.73816 13.5118C2.42559 13.1993 2.25 12.7754 2.25 12.3333V6.66667H14.25V12.3333C14.25 12.7754 14.0744 13.1993 13.7618 13.5118C13.4493 13.8244 13.0254 14 12.5833 14Z" fill="#A0A3BD"/>
</g>
<defs>
<clipPath id="clip0_1315_6795">
<rect width="16" height="16" fill="white" transform="translate(0.25)"/>
</clipPath>
</defs>
</svg>
