<svg width="75" height="75" viewBox="0 0 75 75" fill="none" xmlns="http://www.w3.org/2000/svg">
<rect width="75" height="75" rx="8" fill="#DDDAFF"/>
<path d="M33.5449 32.4463H41.4551C42.0619 32.4463 42.5537 32.9383 42.5537 33.5449V41.4551C42.5537 42.0617 42.0619 42.5537 41.4551 42.5537H33.5449C32.9381 42.5537 32.4463 42.0617 32.4463 41.4551V33.5449C32.4463 32.9383 32.9381 32.4463 33.5449 32.4463ZM34.6436 40.3564H40.3564V34.6436H34.6436V40.3564Z" fill="#222427"/>
<path d="M21.9204 38.4766C21.5023 39.8323 20.2379 40.8203 18.7469 40.8203C16.916 40.8203 15.4266 39.3309 15.4266 37.5C15.4266 35.6691 16.9161 34.1797 18.7469 34.1797C20.238 34.1797 21.5024 35.1677 21.9204 36.5234H27.9296V28.9062C27.9296 28.367 28.3668 27.9297 28.9061 27.9297H30.4686V22.0674H24.9977C24.4584 22.0674 24.0212 21.6301 24.0212 21.0908C24.0212 20.5516 24.4584 20.1143 24.9977 20.1143H31.4452C31.9846 20.1143 32.4218 20.5516 32.4218 21.0908V27.9297H36.5233V21.9206C35.1677 21.5025 34.1796 20.2382 34.1796 18.7471C34.1796 16.9162 35.669 15.4268 37.4999 15.4268C39.3308 15.4268 40.8202 16.9162 40.8202 18.7471C40.8202 20.2382 39.8321 21.5026 38.4765 21.9206V27.9297H46.0936C46.633 27.9297 47.0702 28.367 47.0702 28.9062V30.4688H52.9326V18.9947C51.5754 18.5776 50.5858 17.3125 50.5858 15.8203C50.5858 13.9895 52.0753 12.5 53.9062 12.5C55.737 12.5 57.2265 13.9895 57.2265 15.8203C57.2265 17.3104 56.2398 18.574 54.8857 18.993V31.4453C54.8857 31.9846 54.4485 32.4219 53.9092 32.4219H47.0702V36.5234H53.0794C53.4975 35.1677 54.7619 34.1797 56.2529 34.1797C58.0838 34.1797 59.5732 35.6691 59.5732 37.5C59.5732 39.3309 58.0838 40.8203 56.2529 40.8203C54.7618 40.8203 53.4974 39.8323 53.0794 38.4766H47.0702V46.0938C47.0702 46.633 46.633 47.0703 46.0936 47.0703H44.5311V52.9326H50.0021C50.5414 52.9326 50.9786 53.3699 50.9786 53.9092C50.9786 54.4484 50.5414 54.8857 50.0021 54.8857H43.5546C43.0152 54.8857 42.578 54.4484 42.578 53.9092V47.0703H38.4765V53.0794C39.8321 53.4975 40.8202 54.7618 40.8202 56.2529C40.8202 58.0838 39.3308 59.5732 37.4999 59.5732C35.669 59.5732 34.1796 58.0838 34.1796 56.2529C34.1796 54.7618 35.1677 53.4974 36.5233 53.0794V47.0703H28.9061C28.3668 47.0703 27.9296 46.633 27.9296 46.0938V44.5312H22.0672V56.0053C23.4244 56.4224 24.414 57.6875 24.414 59.1797C24.414 61.0105 22.9245 62.5 21.0936 62.5C19.2628 62.5 17.7733 61.0105 17.7733 59.1797C17.7733 57.6896 18.76 56.426 20.1141 56.007V43.5547C20.1141 43.0154 20.5513 42.5781 21.0906 42.5781H27.9296V38.4766H21.9204ZM18.7469 36.1328C17.993 36.1328 17.3797 36.7461 17.3797 37.5C17.3797 38.2539 17.9931 38.8672 18.7469 38.8672C19.5008 38.8672 20.1141 38.2539 20.1141 37.5C20.1141 36.7461 19.5008 36.1328 18.7469 36.1328ZM53.9062 17.1875C54.6601 17.1875 55.2733 16.5742 55.2733 15.8203C55.2733 15.0664 54.6601 14.4531 53.9062 14.4531C53.1522 14.4531 52.539 15.0664 52.539 15.8203C52.539 16.5742 53.1522 17.1875 53.9062 17.1875ZM56.2529 38.8672C57.0068 38.8672 57.6201 38.2539 57.6201 37.5C57.6201 36.7461 57.0068 36.1328 56.2529 36.1328C55.499 36.1328 54.8857 36.7461 54.8857 37.5C54.8857 38.2539 55.499 38.8672 56.2529 38.8672ZM38.8671 18.7471C38.8671 17.9932 38.2538 17.3799 37.4999 17.3799C36.746 17.3799 36.1327 17.9932 36.1327 18.7471C36.1327 19.501 36.746 20.1143 37.4999 20.1143C38.2538 20.1143 38.8671 19.501 38.8671 18.7471ZM36.1327 56.2529C36.1327 57.0068 36.746 57.6201 37.4999 57.6201C38.2538 57.6201 38.8671 57.0068 38.8671 56.2529C38.8671 55.499 38.2538 54.8857 37.4999 54.8857C36.746 54.8857 36.1327 55.499 36.1327 56.2529ZM29.8827 45.1172H45.1171V29.8828H29.8827V45.1172ZM21.0936 57.8125C20.3397 57.8125 19.7265 58.4258 19.7265 59.1797C19.7265 59.9336 20.3397 60.5469 21.0936 60.5469C21.8476 60.5469 22.4608 59.9336 22.4608 59.1797C22.4608 58.4258 21.8476 57.8125 21.0936 57.8125Z" fill="#222427"/>
</svg>
