<svg width="21" height="20" viewBox="0 0 21 20" fill="none" xmlns="http://www.w3.org/2000/svg">
<g clip-path="url(#clip0_1315_6785)">
<path d="M10.75 0C8.77219 0 6.83879 0.586489 5.1943 1.6853C3.54981 2.78412 2.26809 4.3459 1.51121 6.17316C0.754333 8.00042 0.556299 10.0111 0.942152 11.9509C1.328 13.8907 2.28041 15.6725 3.67894 17.0711C5.07746 18.4696 6.85929 19.422 8.7991 19.8078C10.7389 20.1937 12.7496 19.9957 14.5768 19.2388C16.4041 18.4819 17.9659 17.2002 19.0647 15.5557C20.1635 13.9112 20.75 11.9778 20.75 10C20.7471 7.34871 19.6926 4.80684 17.8179 2.9321C15.9432 1.05736 13.4013 0.00286757 10.75 0V0ZM10.75 17.5C9.26665 17.5 7.8166 17.0601 6.58323 16.236C5.34986 15.4119 4.38857 14.2406 3.82091 12.8701C3.25325 11.4997 3.10473 9.99168 3.39411 8.53682C3.6835 7.08196 4.39781 5.74559 5.4467 4.6967C6.4956 3.6478 7.83197 2.9335 9.28683 2.64411C10.7417 2.35472 12.2497 2.50325 13.6201 3.0709C14.9906 3.63856 16.1619 4.59985 16.986 5.83322C17.8101 7.06659 18.25 8.51664 18.25 10C18.2478 11.9884 17.4569 13.8948 16.0509 15.3009C14.6448 16.7069 12.7385 17.4978 10.75 17.5Z" fill="#848A9D"/>
<path d="M9.50001 9.2124L7.50001 10.4624C7.36083 10.5495 7.24019 10.6632 7.14497 10.797C7.04974 10.9308 6.98181 11.082 6.94505 11.2421C6.90829 11.4021 6.90343 11.5678 6.93073 11.7297C6.95803 11.8916 7.01697 12.0466 7.10418 12.1857C7.19131 12.3249 7.30502 12.4456 7.43879 12.5408C7.57257 12.636 7.7238 12.7039 7.88384 12.7407C8.04387 12.7774 8.20958 12.7823 8.3715 12.755C8.53342 12.7277 8.68838 12.6688 8.82751 12.5816L11.2183 11.0816C11.4582 10.9312 11.6559 10.7223 11.7926 10.4744C11.9294 10.2266 12.0008 9.94798 12 9.6649V6.47656C12 6.14504 11.8683 5.8271 11.6339 5.59268C11.3995 5.35826 11.0815 5.22656 10.75 5.22656C10.4185 5.22656 10.1005 5.35826 9.86613 5.59268C9.63171 5.8271 9.50001 6.14504 9.50001 6.47656V9.2124Z" fill="#848A9D"/>
</g>
<defs>
<clipPath id="clip0_1315_6785">
<rect width="20" height="20" fill="white" transform="translate(0.75)"/>
</clipPath>
</defs>
</svg>
