<svg width="16" height="16" viewBox="0 0 16 16" fill="none" xmlns="http://www.w3.org/2000/svg">
<g clip-path="url(#clip0_2533_9911)">
<path d="M8 0C6.41775 0 4.87103 0.469192 3.55544 1.34824C2.23985 2.22729 1.21447 3.47672 0.608967 4.93853C0.00346629 6.40034 -0.15496 8.00888 0.153721 9.56072C0.462403 11.1126 1.22433 12.538 2.34315 13.6569C3.46197 14.7757 4.88743 15.5376 6.43928 15.8463C7.99113 16.155 9.59966 15.9965 11.0615 15.391C12.5233 14.7855 13.7727 13.7602 14.6518 12.4446C15.5308 11.129 16 9.58225 16 8C15.9977 5.87897 15.1541 3.84547 13.6543 2.34568C12.1545 0.845886 10.121 0.00229405 8 0V0ZM8 14C6.81332 14 5.65328 13.6481 4.66658 12.9888C3.67989 12.3295 2.91085 11.3925 2.45673 10.2961C2.0026 9.19975 1.88378 7.99335 2.11529 6.82946C2.3468 5.66557 2.91825 4.59647 3.75736 3.75736C4.59648 2.91824 5.66558 2.3468 6.82946 2.11529C7.99335 1.88378 9.19975 2.0026 10.2961 2.45672C11.3925 2.91085 12.3295 3.67988 12.9888 4.66658C13.6481 5.65327 14 6.81331 14 8C13.9982 9.59076 13.3655 11.1159 12.2407 12.2407C11.1159 13.3655 9.59076 13.9982 8 14V14Z" fill="#A0A3BD"/>
<path d="M6.99976 7.36981L5.39976 8.36981C5.28842 8.43952 5.19191 8.53048 5.11573 8.6375C5.03955 8.74452 4.98521 8.8655 4.9558 8.99353C4.92639 9.12156 4.9225 9.25413 4.94434 9.38367C4.96618 9.5132 5.01333 9.63717 5.0831 9.74847C5.15281 9.85981 5.24377 9.95633 5.35079 10.0325C5.45781 10.1087 5.57879 10.163 5.70682 10.1924C5.83485 10.2218 5.96742 10.2257 6.09696 10.2039C6.22649 10.1821 6.35046 10.1349 6.46176 10.0651L8.37443 8.86514C8.56633 8.74489 8.72445 8.57774 8.83385 8.37945C8.94326 8.18116 9.00036 7.95828 8.99976 7.73181V5.18115C8.99976 4.91593 8.89441 4.66158 8.70687 4.47405C8.51934 4.28651 8.26498 4.18115 7.99976 4.18115C7.73455 4.18115 7.48019 4.28651 7.29266 4.47405C7.10512 4.66158 6.99976 4.91593 6.99976 5.18115V7.36981Z" fill="#A0A3BD"/>
</g>
<defs>
<clipPath id="clip0_2533_9911">
<rect width="16" height="16" fill="white"/>
</clipPath>
</defs>
</svg>
