<svg width="12" height="12" viewBox="0 0 12 12" fill="none" xmlns="http://www.w3.org/2000/svg">
<g clip-path="url(#clip0_2773_779)">
<path d="M10.5 5.75V7.5H9C8.60218 7.5 8.22064 7.65804 7.93934 7.93934C7.65804 8.22064 7.5 8.60218 7.5 9V10.5H2.25C2.05109 10.5 1.86032 10.421 1.71967 10.2803C1.57902 10.1397 1.5 9.94891 1.5 9.75V2.25C1.5 2.05109 1.57902 1.86032 1.71967 1.71967C1.86032 1.57902 2.05109 1.5 2.25 1.5H6.75C6.94891 1.5 7.13968 1.42098 7.28033 1.28033C7.42098 1.13968 7.5 0.948912 7.5 0.75C7.5 0.551088 7.42098 0.360322 7.28033 0.21967C7.13968 0.0790176 6.94891 0 6.75 0L2.25 0C1.65326 0 1.08097 0.237053 0.65901 0.65901C0.237053 1.08097 0 1.65326 0 2.25L0 9.75C0 10.3467 0.237053 10.919 0.65901 11.341C1.08097 11.7629 1.65326 12 2.25 12H8.242C8.83849 12 9.41058 11.7632 9.8325 11.3415L11.341 9.833C11.7628 9.41116 11.9999 8.83907 12 8.2425V5.75C12 5.55109 11.921 5.36032 11.7803 5.21967C11.6397 5.07902 11.4489 5 11.25 5C11.0511 5 10.8603 5.07902 10.7197 5.21967C10.579 5.36032 10.5 5.55109 10.5 5.75Z" fill="#5E617B"/>
<path d="M8.89662 0.896596L2.64662 7.1466C2.55285 7.24034 2.50015 7.3675 2.50012 7.50009V9.00009C2.50012 9.1327 2.5528 9.25988 2.64657 9.35365C2.74034 9.44742 2.86751 9.50009 3.00012 9.50009H4.50012C4.63272 9.50007 4.75988 9.44737 4.85362 9.35359L11.0191 3.1881C11.2278 2.98692 11.3811 2.73545 11.4645 2.45787C11.5478 2.18029 11.5584 1.88593 11.4951 1.6031C11.4243 1.34005 11.2859 1.10014 11.0935 0.907269C10.9011 0.714399 10.6616 0.575301 10.3987 0.503832C10.1358 0.432362 9.85884 0.431017 9.59529 0.499928C9.33175 0.56884 9.09086 0.705604 8.89662 0.896596Z" fill="#5E617B"/>
</g>
<defs>
<clipPath id="clip0_2773_779">
<rect width="12" height="12" fill="white"/>
</clipPath>
</defs>
</svg>
