<svg width="117" height="116" viewBox="0 0 117 116" fill="none" xmlns="http://www.w3.org/2000/svg">
<path d="M58.4862 115.985C90.5111 115.985 116.472 90.0238 116.472 57.9989C116.472 25.974 90.5111 0.0126953 58.4862 0.0126953C26.4613 0.0126953 0.5 25.974 0.5 57.9989C0.5 90.0238 26.4613 115.985 58.4862 115.985Z" fill="#222427"/>
<path d="M61.5 110.013C91.8757 110.013 116.5 85.3884 116.5 55.0127C116.5 24.637 91.8757 0.0126953 61.5 0.0126953C31.1243 0.0126953 6.5 24.637 6.5 55.0127C6.5 85.3884 31.1243 110.013 61.5 110.013Z" fill="#52719E"/>
<path fill-rule="evenodd" clip-rule="evenodd" d="M85.7551 39.7885C88.8084 42.5875 89.0147 47.3317 86.2158 50.3851L59.7446 79.2627C58.3241 80.8124 56.3183 81.6948 54.216 81.6948C52.1137 81.6948 50.1079 80.8124 48.6873 79.2627L36.655 66.1365C33.856 63.0831 34.0623 58.3389 37.1157 55.54C40.1691 52.741 44.9134 52.9473 47.7123 56.0007L54.216 63.0956L75.1585 40.2492C77.9574 37.1959 82.7017 36.9896 85.7551 39.7885Z" fill="white"/>
</svg>
