<svg width="400" height="350" viewBox="0 0 421 436" fill="none" xmlns="http://www.w3.org/2000/svg">
<circle cx="238.87" cy="35.5734" r="35.5734" fill="#DFF4FF"/>
<g clip-path="url(#clip0_1315_10200)">
<path d="M222.758 19.4586L225.441 48.9688L238.854 51.6517L252.268 48.9688L254.951 19.4586H222.758ZM249.778 46.7314L238.854 48.9153L227.93 46.7314L225.694 22.1415H252.012L249.778 46.7314Z" fill="#222427"/>
<path d="M234.831 24.824V42.6392L232.911 42.2565L232.669 39.5793H229.975L230.421 44.4944L237.513 45.9101V24.824H234.831Z" fill="#222427"/>
<path d="M248.831 27.5069L249.074 24.824H240.195V36.8964H245.283L244.796 42.2565L240.195 43.1752V45.9101L247.287 44.4944L248.221 34.2139H242.878V27.5069H248.831Z" fill="#222427"/>
</g>
<circle cx="83.0341" cy="83.9243" r="42.9081" fill="#DDFCF6"/>
<g clip-path="url(#clip1_1315_10200)">
<path d="M63.5957 64.4873L66.8318 100.082L83.0111 103.318L99.1905 100.082L102.427 64.4873H63.5957ZM96.1875 97.3834L83.0111 100.018L69.8348 97.3834L67.1376 67.7234H98.8818L96.1875 97.3834Z" fill="#222427"/>
<path d="M78.157 70.959V92.4474L75.8422 91.9858L75.5499 88.7566H72.2998L72.8386 94.6851L81.393 96.3927V70.959H78.157Z" fill="#222427"/>
<path d="M95.0448 74.195L95.3385 70.959H84.6289V85.5206H90.7661L90.1783 91.9858L84.6289 93.094V96.3927L93.1834 94.6851L94.3099 82.285H87.865V74.195H95.0448Z" fill="#222427"/>
</g>
<circle cx="351.928" cy="140.608" r="45.2009" fill="#FFE6F6"/>
<g clip-path="url(#clip2_1315_10200)">
<path d="M331.452 120.131L334.861 157.628L351.905 161.037L368.949 157.628L372.358 120.131H331.452ZM365.785 154.785L351.905 157.56L338.025 154.785L335.183 123.54H368.624L365.785 154.785Z" fill="#222427"/>
<path d="M346.791 126.949V149.586L344.353 149.099L344.045 145.698H340.621L341.189 151.943L350.2 153.742V126.949H346.791Z" fill="#222427"/>
<path d="M364.582 130.358L364.891 126.949H353.609V142.289H360.075L359.455 149.099L353.609 150.267V153.742L362.621 151.943L363.808 138.88H357.018V130.358H364.582Z" fill="#222427"/>
</g>
<rect x="293.153" y="199.907" width="12.1284" height="63.3143" transform="rotate(-15 293.153 199.907)" fill="white" stroke="#52689E" stroke-width="6"/>
<circle cx="318.068" cy="267.404" r="12.9956" transform="rotate(-15 318.068 267.404)" fill="white" stroke="#52689E" stroke-width="6"/>
<path d="M323.866 300.627C324.294 302.227 325.939 303.177 327.54 302.748C329.14 302.319 330.09 300.674 329.661 299.074L323.866 300.627ZM321.382 291.356L323.866 300.627L329.661 299.074L327.177 289.803L321.382 291.356Z" fill="#52689E"/>
<path d="M285.174 273.388C283.573 273.817 282.624 275.462 283.053 277.063C283.481 278.663 285.126 279.613 286.727 279.184L285.174 273.388ZM294.444 270.904L285.174 273.388L286.727 279.184L295.997 276.7L294.444 270.904Z" fill="#52689E"/>
<path d="M351.103 261.935C352.704 261.506 353.654 259.861 353.225 258.26C352.796 256.66 351.151 255.71 349.551 256.139L351.103 261.935ZM341.833 264.419L351.103 261.935L349.551 256.139L340.28 258.623L341.833 264.419Z" fill="#52689E"/>
<path d="M298.88 295.021C298.051 296.456 298.543 298.291 299.978 299.119C301.413 299.948 303.247 299.456 304.076 298.021L298.88 295.021ZM303.678 286.71L298.88 295.021L304.076 298.021L308.874 289.71L303.678 286.71Z" fill="#52689E"/>
<path d="M345.499 286.921C346.934 287.749 348.769 287.258 349.597 285.823C350.426 284.388 349.934 282.553 348.499 281.725L345.499 286.921ZM337.187 282.122L345.499 286.921L348.499 281.725L340.188 276.926L337.187 282.122Z" fill="#52689E"/>
<path d="M173.077 230.708C176.582 224.935 184.96 224.935 188.464 230.708L302.435 418.455C306.076 424.453 301.758 432.125 294.742 432.125H66.7991C59.7827 432.125 55.4647 424.453 59.1057 418.455L173.077 230.708Z" fill="white" stroke="#52689E" stroke-width="6" stroke-linejoin="round"/>
<path d="M215.03 331.153V331.153C208.552 324.675 198.048 324.675 191.57 331.153V331.153" stroke="#52689E" stroke-width="6" stroke-linecap="round"/>
<path d="M170.24 331.153V331.153C163.762 324.675 153.258 324.675 146.78 331.153V331.153" stroke="#52689E" stroke-width="6" stroke-linecap="round"/>
<path d="M122.255 353.547V353.547C122.255 363.265 130.133 371.142 139.85 371.142H221.428C231.145 371.142 239.023 363.265 239.023 353.547V353.547" stroke="#52689E" stroke-width="6" stroke-linecap="round" stroke-linejoin="round"/>
<path d="M119.757 177.664C121.462 175.476 124.081 174.197 126.855 174.197H310.959C318.453 174.197 322.664 182.82 318.057 188.73L264.445 257.505C262.74 259.693 260.121 260.972 257.347 260.972H73.2434C65.7495 260.972 61.538 252.349 66.1453 246.438L119.757 177.664Z" fill="white" stroke="#52689E" stroke-width="6" stroke-linejoin="round"/>
<mask id="mask0_1315_10200" style="mask-type:alpha" maskUnits="userSpaceOnUse" x="69" y="171" width="246" height="93">
<path d="M117.355 180.745C120.576 176.613 125.523 174.197 130.762 174.197H294.579C308.734 174.197 316.689 190.485 307.987 201.649L266.848 254.423C263.626 258.556 258.68 260.972 253.44 260.972H89.6232C75.4681 260.972 67.513 244.684 76.2155 233.52L117.355 180.745Z" fill="white" stroke="#222427" stroke-width="6" stroke-linejoin="round"/>
</mask>
<g mask="url(#mask0_1315_10200)">
<path d="M56.1436 166.314L79.1187 263.972" stroke="#52689E" stroke-width="6" stroke-linejoin="round"/>
<path d="M73.373 166.314L96.3482 263.972" stroke="#52689E" stroke-width="6" stroke-linejoin="round"/>
<path d="M90.6074 166.314L113.583 263.972" stroke="#52689E" stroke-width="6" stroke-linejoin="round"/>
<path d="M108.985 166.314L130.812 263.972" stroke="#52689E" stroke-width="6" stroke-linejoin="round"/>
<path d="M126.218 166.314L149.193 263.972" stroke="#52689E" stroke-width="6" stroke-linejoin="round"/>
<path d="M143.449 166.314L166.424 263.972" stroke="#52689E" stroke-width="6" stroke-linejoin="round"/>
<path d="M160.679 166.314L183.654 263.972" stroke="#52689E" stroke-width="6" stroke-linejoin="round"/>
<path d="M179.06 166.314L200.886 263.972" stroke="#52689E" stroke-width="6" stroke-linejoin="round"/>
<path d="M196.293 166.314L219.268 263.972" stroke="#52689E" stroke-width="6" stroke-linejoin="round"/>
<path d="M213.524 166.314L236.5 263.972" stroke="#52689E" stroke-width="6" stroke-linejoin="round"/>
<path d="M230.755 166.314L253.73 263.972" stroke="#52689E" stroke-width="6" stroke-linejoin="round"/>
<path d="M249.137 166.314L270.963 263.972" stroke="#52689E" stroke-width="6" stroke-linejoin="round"/>
<path d="M266.365 166.314L289.34 263.972" stroke="#52689E" stroke-width="6" stroke-linejoin="round"/>
<path d="M283.597 166.314L306.572 263.972" stroke="#52689E" stroke-width="6" stroke-linejoin="round"/>
<path d="M300.828 166.314L323.803 263.972" stroke="#52689E" stroke-width="6" stroke-linejoin="round"/>
</g>
<circle cx="397.188" cy="229.554" r="23.5831" fill="#E6DDFF"/>
<g clip-path="url(#clip3_1315_10200)">
<path d="M386.503 218.871L388.282 238.435L397.174 240.213L406.066 238.435L407.845 218.871H386.503ZM404.416 236.951L397.174 238.399L389.932 236.951L388.45 220.65H405.897L404.416 236.951Z" fill="#222427"/>
<path d="M394.506 222.428V234.238L393.234 233.985L393.073 232.21H391.287L391.583 235.468L396.285 236.407V222.428H394.506Z" fill="#222427"/>
<path d="M403.788 224.206L403.95 222.428H398.063V230.431H401.437L401.114 233.985L398.063 234.594V236.407L402.765 235.468L403.384 228.653H399.842V224.206H403.788Z" fill="#222427"/>
</g>
<circle cx="178.885" cy="126.276" r="20.1705" fill="#FCF2CF"/>
<g clip-path="url(#clip4_1315_10200)">
<path d="M169.749 117.139L171.27 133.872L178.876 135.393L186.482 133.872L188.003 117.139H169.749ZM185.07 132.603L178.876 133.841L172.682 132.603L171.414 118.66H186.337L185.07 132.603Z" fill="#222427"/>
<path d="M176.594 120.181V130.283L175.506 130.066L175.369 128.548H173.841L174.094 131.335L178.115 132.137V120.181H176.594Z" fill="#222427"/>
<path d="M184.533 121.702L184.671 120.181H179.637V127.026H182.522L182.245 130.066L179.637 130.587V132.137L183.658 131.335L184.188 125.505H181.158V121.702H184.533Z" fill="#222427"/>
</g>
<circle cx="27.8719" cy="200.852" r="27.8719" fill="#FFE6E0"/>
<g clip-path="url(#clip5_1315_10200)">
<path d="M15.2461 188.227L17.3482 211.348L27.8578 213.45L38.3675 211.348L40.4696 188.227H15.2461ZM36.4168 209.595L27.8578 211.306L19.2988 209.595L17.5468 190.329H38.167L36.4168 209.595Z" fill="#222427"/>
<path d="M24.705 192.431V206.389L23.2014 206.089L23.0116 203.991H20.9004L21.2504 207.842L26.8071 208.952V192.431H24.705Z" fill="#222427"/>
<path d="M35.675 194.533L35.8658 192.431H28.9092V201.889H32.8957L32.5139 206.089L28.9092 206.809V208.952L34.4659 207.842L35.1977 199.788H31.0112V194.533H35.675Z" fill="#222427"/>
</g>
<defs>
<clipPath id="clip0_1315_10200">
<rect width="32.1931" height="32.1931" fill="white" transform="translate(222.758 19.4586)"/>
</clipPath>
<clipPath id="clip1_1315_10200">
<rect width="38.8309" height="38.8309" fill="white" transform="translate(63.5957 64.4873)"/>
</clipPath>
<clipPath id="clip2_1315_10200">
<rect width="40.9058" height="40.9058" fill="white" transform="translate(331.452 120.131)"/>
</clipPath>
<clipPath id="clip3_1315_10200">
<rect width="21.3422" height="21.3422" fill="white" transform="translate(386.503 218.871)"/>
</clipPath>
<clipPath id="clip4_1315_10200">
<rect width="18.2538" height="18.2538" fill="white" transform="translate(169.749 117.139)"/>
</clipPath>
<clipPath id="clip5_1315_10200">
<rect width="25.2235" height="25.2235" fill="white" transform="translate(15.2461 188.227)"/>
</clipPath>
</defs>
</svg>
