<svg width="20" height="21" viewBox="0 0 20 21" fill="none" xmlns="http://www.w3.org/2000/svg">
<path d="M18.4701 0.499896H1.53006C1.33964 0.497251 1.15056 0.532143 0.973624 0.602579C0.796689 0.673016 0.635362 0.777616 0.498856 0.910408C0.36235 1.0432 0.25334 1.20158 0.178051 1.37651C0.102761 1.55143 0.062667 1.73947 0.0600586 1.9299V19.0699C0.062667 19.2603 0.102761 19.4484 0.178051 19.6233C0.25334 19.7982 0.36235 19.9566 0.498856 20.0894C0.635362 20.2222 0.796689 20.3268 0.973624 20.3972C1.15056 20.4676 1.33964 20.5025 1.53006 20.4999H18.4701C18.6605 20.5025 18.8496 20.4676 19.0265 20.3972C19.2034 20.3268 19.3648 20.2222 19.5013 20.0894C19.6378 19.9566 19.7468 19.7982 19.8221 19.6233C19.8974 19.4484 19.9375 19.2603 19.9401 19.0699V1.9299C19.9375 1.73947 19.8974 1.55143 19.8221 1.37651C19.7468 1.20158 19.6378 1.0432 19.5013 0.910408C19.3648 0.777616 19.2034 0.673016 19.0265 0.602579C18.8496 0.532143 18.6605 0.497251 18.4701 0.499896ZM6.09006 17.2399H3.09006V8.2399H6.09006V17.2399ZM4.59006 6.9799C4.17632 6.9799 3.77953 6.81554 3.48697 6.52298C3.19442 6.23043 3.03006 5.83363 3.03006 5.4199C3.03006 5.00616 3.19442 4.60937 3.48697 4.31681C3.77953 4.02425 4.17632 3.8599 4.59006 3.8599C4.80975 3.83498 5.03224 3.85675 5.24293 3.92378C5.45363 3.99081 5.6478 4.10159 5.81272 4.24886C5.97763 4.39613 6.10958 4.57657 6.19993 4.77838C6.29028 4.98018 6.33698 5.19879 6.33698 5.4199C6.33698 5.641 6.29028 5.85961 6.19993 6.06141C6.10958 6.26322 5.97763 6.44366 5.81272 6.59093C5.6478 6.73821 5.45363 6.84898 5.24293 6.91601C5.03224 6.98304 4.80975 7.00481 4.59006 6.9799ZM16.9101 17.2399H13.9101V12.4099C13.9101 11.1999 13.4801 10.4099 12.3901 10.4099C12.0527 10.4124 11.7242 10.5182 11.4489 10.7131C11.1735 10.908 10.9645 11.1826 10.8501 11.4999C10.7718 11.7349 10.7379 11.9825 10.7501 12.2299V17.2299H7.75006C7.75006 17.2299 7.75006 9.0499 7.75006 8.2299H10.7501V9.4999C11.0226 9.027 11.419 8.63741 11.8965 8.3731C12.374 8.10878 12.9146 7.97975 13.4601 7.9999C15.4601 7.9999 16.9101 9.2899 16.9101 12.0599V17.2399Z" fill="#333941"/>
</svg>
