<svg width="6" height="10" viewBox="0 0 6 10" fill="none" xmlns="http://www.w3.org/2000/svg">
<path d="M3.5594 4.76391C3.59044 4.79488 3.61507 4.83166 3.63187 4.87216C3.64868 4.91266 3.65733 4.95607 3.65733 4.99991C3.65733 5.04376 3.64868 5.08717 3.63187 5.12767C3.61507 5.16817 3.59044 5.20495 3.5594 5.23591L0.50207 8.29258C0.314474 8.48009 0.209049 8.73444 0.208986 8.99968C0.208923 9.26492 0.314229 9.51932 0.501737 9.70692C0.689244 9.89451 0.943594 9.99994 1.20883 10C1.47407 10.0001 1.72847 9.89476 1.91607 9.70725L4.97339 6.64991C5.41022 6.21189 5.65552 5.61852 5.65552 4.99991C5.65552 4.3813 5.41022 3.78794 4.9734 3.34991L1.91607 0.292579C1.72847 0.105071 1.47407 -0.000234969 1.20883 -0.00017205C0.943595 -0.000110084 0.689245 0.105317 0.501737 0.292914C0.31423 0.48051 0.208924 0.73491 0.208987 1.00015C0.20905 1.26539 0.314474 1.51974 0.502071 1.70725L3.5594 4.76391Z" fill="#848A9D"/>
</svg>
