<svg width="128" height="128" viewBox="0 0 128 128" fill="none" xmlns="http://www.w3.org/2000/svg">
<path d="M4.02832 25.053H8.86192V51.4431H4.02832V25.053Z" fill="#5E617B"/>
<path d="M6.4448 44.998C2.88534 44.998 0 47.8834 0 51.4428V55.7393C0 59.2987 2.88534 62.1841 6.4448 62.1841C10.0043 62.1841 12.8896 59.2987 12.8896 55.7393V51.4428C12.8896 47.8834 10.0043 44.998 6.4448 44.998Z" fill="#5E617B"/>
<path d="M51.751 33.6448H24.5549V56.2854C24.5549 60.0691 26.7475 63.5193 30.1851 65.1002C42.8111 70.9067 56.9297 72.3477 70.2969 69.4241C74.7106 68.4586 79.0428 67.0179 83.212 65.1006C86.6496 63.5196 88.8421 60.0694 88.8421 56.2857V33.6448H51.751Z" fill="#DDDAFF"/>
<path d="M51.751 56.2854V33.6448H24.5549V56.2854C24.5549 60.0691 26.7475 63.5193 30.1851 65.1002C42.8111 70.9067 56.9297 72.3477 70.2969 69.4241C65.8829 68.4586 61.5507 67.0179 57.3812 65.1002C53.9435 63.5193 51.751 60.0691 51.751 56.2854Z" fill="#848A9D"/>
<path d="M107.478 18.9277L62.2894 1.05888C60.5042 0.352853 58.6013 0 56.6985 0C55.9171 0 55.1318 0.0634813 54.3507 0.184321C53.2512 0.354464 52.1614 0.642224 51.1076 1.0592L5.91927 18.9277C0.174697 21.1992 0.174697 28.7222 5.91927 30.9937L51.1073 48.8625C52.8925 49.5686 54.7954 49.9214 56.6982 49.9214C58.601 49.9214 60.5038 49.5686 62.2894 48.8625L107.478 30.9937C113.222 28.7222 113.222 21.1992 107.478 18.9277Z" fill="#D9DBE9"/>
<path d="M54.3507 0.184326C53.2512 0.354469 52.1614 0.642229 51.1076 1.05921L5.91927 18.9277C0.174696 21.1992 0.174696 28.7222 5.91927 30.9937L51.1073 48.8625C52.8925 49.5686 54.7954 49.9214 56.6982 49.9214C58.601 49.9214 60.5038 49.5686 62.2894 48.8625C48.9905 35.7909 43.2717 14.2488 54.3507 0.184326Z" fill="#848A9D"/>
<g clip-path="url(#clip0_126_8309)">
<path d="M40.5259 86.3708L16.9241 106.268C16.4618 106.589 16.0203 106.953 15.6082 107.366C11.864 111.11 11.864 117.181 15.6082 120.925C19.3525 124.669 25.4234 124.669 29.1676 120.925C29.5797 120.513 29.9437 120.071 30.265 119.609L50.1625 96.0072L40.5259 86.3708Z" fill="#5E617B"/>
<path d="M34.9883 91.0395C36.3957 93.0647 37.9921 94.98 39.7728 96.7609C41.5535 98.5416 43.4689 100.138 45.494 101.545L50.1626 96.0076L40.526 86.3711L34.9883 91.0395Z" fill="#222427"/>
<path d="M69.0783 103.336C88.8952 103.336 104.96 87.2717 104.96 67.4548C104.96 47.638 88.8952 31.5732 69.0783 31.5732C49.2615 31.5732 33.1968 47.638 33.1968 67.4548C33.1968 87.2717 49.2615 103.336 69.0783 103.336Z" fill="#333941"/>
<path d="M69.0786 93.4266C83.4224 93.4266 95.0504 81.7986 95.0504 67.4548C95.0504 53.1109 83.4224 41.4829 69.0786 41.4829C54.7347 41.4829 43.1067 53.1109 43.1067 67.4548C43.1067 81.7986 54.7347 93.4266 69.0786 93.4266Z" fill="#D9DBE9"/>
<path d="M56.2766 85.8197C46.134 75.6771 46.134 59.2326 56.2766 49.09C60.6395 44.7271 66.1683 42.2429 71.86 41.6334C64.3196 40.826 56.4934 43.3102 50.7136 49.09C40.571 59.2326 40.571 75.6771 50.7136 85.8197C56.4936 91.5995 64.3196 94.0839 71.86 93.2764C66.1683 92.667 60.6393 90.1826 56.2766 85.8197Z" fill="#848A9D"/>
<path d="M63.4207 63.8854C63.169 63.6338 63.0133 63.286 63.0134 62.902L63.0133 59.8717C63.0133 59.1036 63.6359 58.4809 64.4041 58.4809C65.1722 58.4809 65.7949 59.1036 65.7947 59.8715L65.7949 62.9019C65.7949 63.67 65.1722 64.2927 64.4041 64.2927C64.0201 64.2927 63.6724 64.1372 63.4207 63.8854Z" fill="#121A61"/>
<path d="M72.4098 63.8853C72.1582 63.6336 72.0024 63.2859 72.0025 62.9019L72.0025 59.8717C72.0025 59.1036 72.6252 58.4809 73.3933 58.4809C74.1614 58.4809 74.7841 59.1036 74.784 59.8715L74.784 62.9017C74.784 63.6698 74.1613 64.2925 73.3932 64.2925C73.0091 64.2927 72.6614 64.1369 72.4098 63.8853Z" fill="#121A61"/>
<path d="M73.9051 74.3253C73.9842 74.4623 74.0586 74.6019 74.1286 74.745C74.4661 75.4349 74.1805 76.2679 73.4907 76.6055C72.8008 76.943 71.9679 76.6576 71.6302 75.9676C71.1045 74.8936 70.1441 74.1024 68.9938 73.794C67.8432 73.4858 66.6149 73.6913 65.6237 74.358C64.9865 74.7867 64.1223 74.6176 63.6935 73.9802C63.2655 73.3443 63.4339 72.4788 64.0713 72.05C65.7298 70.9344 67.7864 70.5907 69.7137 71.1072C71.4873 71.5825 72.9919 72.7436 73.9051 74.3253Z" fill="#121A61"/>
</g>
<defs>
<clipPath id="clip0_126_8309">
<rect width="92.16" height="92.16" fill="white" transform="translate(12.8 31.5732)"/>
</clipPath>
</defs>
</svg>
