<svg width="20" height="20" viewBox="0 0 20 20" fill="none" xmlns="http://www.w3.org/2000/svg">
<path d="M18.7936 11.0082L17.3336 5.76323C16.8626 4.07318 15.8404 2.589 14.4293 1.54647C13.0182 0.503939 11.2992 -0.037132 9.54536 0.00921792C7.79154 0.0555678 6.1035 0.68668 4.74944 1.80229C3.39538 2.91789 2.45297 4.454 2.07193 6.16656L0.943594 11.2407C0.794738 11.9106 0.798219 12.6054 0.953778 13.2738C1.10934 13.9422 1.41301 14.5672 1.84237 15.1025C2.27174 15.6379 2.81584 16.0699 3.43452 16.3669C4.0532 16.6639 4.73067 16.8181 5.41693 16.8182H5.75026C6.01545 17.7353 6.57146 18.5414 7.33453 19.1151C8.0976 19.6888 9.02643 19.999 9.98109 19.999C10.9358 19.999 11.8646 19.6888 12.6277 19.1151C13.3907 18.5414 13.9467 17.7353 14.2119 16.8182H14.3728C15.0794 16.8183 15.7764 16.655 16.4095 16.3411C17.0425 16.0272 17.5944 15.5711 18.022 15.0086C18.4497 14.4461 18.7414 13.7923 18.8746 13.0984C19.0077 12.4044 18.9785 11.6891 18.7894 11.0082H18.7936ZM16.0361 13.4949C15.8427 13.7517 15.5919 13.9599 15.3039 14.1028C15.0159 14.2458 14.6985 14.3195 14.3769 14.3182H5.41693C5.10502 14.3182 4.7971 14.2481 4.5159 14.1131C4.2347 13.9781 3.9874 13.7817 3.79224 13.5384C3.59707 13.2951 3.45904 13.0111 3.38831 12.7073C3.31758 12.4035 3.31597 12.0877 3.38359 11.7832L4.51193 6.69989C4.77102 5.52995 5.41405 4.48031 6.33863 3.71805C7.26322 2.95579 8.41622 2.52473 9.6141 2.49349C10.812 2.46225 11.9859 2.83262 12.9489 3.54565C13.912 4.25868 14.6089 5.27338 14.9286 6.42823L16.3853 11.6732C16.4731 11.9831 16.4873 12.3092 16.4267 12.6255C16.3661 12.9418 16.2323 13.2395 16.0361 13.4949V13.4949Z" fill="#5E617B"/>
</svg>
