<svg width="16" height="14" viewBox="0 0 16 14" fill="none" xmlns="http://www.w3.org/2000/svg">
<path d="M2.00077 8.49987L10.7938 8.49987L8.35478 10.9389C8.07338 11.2201 7.91524 11.6017 7.91515 11.9995C7.91505 12.3974 8.07301 12.779 8.35428 13.0604C8.63554 13.3418 9.01706 13.4999 9.41492 13.5C9.81278 13.5001 10.1944 13.3421 10.4758 13.0609L14.0618 9.47487C14.717 8.81784 15.085 7.92779 15.085 6.99987C15.085 6.07196 14.717 5.18191 14.0618 4.52487L10.4758 0.93887C10.1944 0.657609 9.81278 0.49965 9.41492 0.499743C9.01706 0.499837 8.63554 0.657977 8.35428 0.939371C8.07301 1.22077 7.91506 1.60237 7.91515 2.00022C7.91524 2.39808 8.07338 2.77961 8.35478 3.06087L10.7938 5.49987L2.00078 5.49987C1.60295 5.49987 1.22142 5.65791 0.940116 5.93921C0.658811 6.22052 0.500775 6.60205 0.500775 6.99987C0.500775 7.3977 0.658811 7.77923 0.940115 8.06053C1.22142 8.34184 1.60295 8.49987 2.00077 8.49987Z" fill="#222427"/>
</svg>
