<svg width="20" height="20" viewBox="0 0 20 20" fill="none" xmlns="http://www.w3.org/2000/svg">
<path d="M15.8329 11.6668C14.6007 11.6714 13.4345 12.2246 12.6513 13.176L8.15145 11.1444C8.2659 10.7735 8.32707 10.3883 8.33312 10.0002C8.32773 9.61634 8.26855 9.23514 8.1573 8.86772L12.6522 6.82609C14.1339 8.56984 16.7486 8.7823 18.4924 7.30065C20.2361 5.81901 20.4486 3.20426 18.9669 1.46051C17.4852 -0.283236 14.8705 -0.495731 13.1268 0.985953C12.194 1.77855 11.6594 2.94302 11.6664 4.16701C11.6664 4.28533 11.6914 4.39701 11.7014 4.51282L6.74984 6.76027C6.01986 6.1654 5.10824 5.83838 4.16658 5.83361C1.86546 5.83361 0 7.69904 0 10.0002C0 12.3014 1.86542 14.1668 4.16658 14.1668C5.10417 14.163 6.01243 13.8396 6.74152 13.2501L11.7014 15.4892C11.6914 15.6051 11.6664 15.7159 11.6664 15.8334C11.6664 18.1345 13.5318 20 15.833 20C18.1341 20 19.9996 18.1346 19.9996 15.8334C19.9996 13.5323 18.1341 11.6668 15.8329 11.6668ZM15.8329 2.50041C16.7534 2.50041 17.4996 3.2466 17.4996 4.16705C17.4996 5.0875 16.7534 5.83369 15.8329 5.83369C14.9125 5.83369 14.1663 5.0875 14.1663 4.16705C14.1663 3.2466 14.9125 2.50041 15.8329 2.50041ZM4.16658 11.6668C3.24613 11.6668 2.49994 10.9206 2.49994 10.0002C2.49994 9.07975 3.24613 8.33356 4.16658 8.33356C5.08703 8.33356 5.83322 9.07975 5.83322 10.0002C5.83322 10.9206 5.08703 11.6668 4.16658 11.6668ZM15.8329 17.5001C14.9125 17.5001 14.1663 16.7539 14.1663 15.8334C14.1663 14.9129 14.9125 14.1668 15.8329 14.1668C16.7534 14.1668 17.4996 14.9129 17.4996 15.8334C17.4996 16.7539 16.7534 17.5001 15.8329 17.5001Z" fill="#5E617B"/>
</svg>
