<svg width="12" height="12" viewBox="0 0 12 12" fill="none" xmlns="http://www.w3.org/2000/svg">
<g clip-path="url(#clip0_2773_784)">
<path fill-rule="evenodd" clip-rule="evenodd" d="M11.5001 2.25C11.5001 1.83579 11.1643 1.5 10.7501 1.5H8.86213C8.54619 0.60368 7.7005 0.00304687 6.75013 0H5.25013C4.29976 0.00304687 3.45407 0.60368 3.13813 1.5H1.25012C0.835911 1.5 0.500122 1.83579 0.500122 2.25C0.500122 2.66421 0.835911 3 1.25012 3H1.50013V9.25001C1.50013 10.7688 2.73135 12 4.25012 12H7.75011C9.26891 12 10.5001 10.7688 10.5001 9.25001V3H10.7501C11.1643 3 11.5001 2.66421 11.5001 2.25ZM9.00013 9.25001C9.00013 9.94036 8.44049 10.5 7.75014 10.5H4.25012C3.55977 10.5 3.00013 9.94036 3.00013 9.25001V3H9.00013V9.25001ZM4.75012 9C5.16433 9 5.50012 8.66421 5.50012 8.25V5.25C5.50012 4.83579 5.16433 4.5 4.75012 4.5C4.33591 4.5 4.00012 4.83579 4.00012 5.25V8.25C4.00012 8.66421 4.33591 9 4.75012 9ZM8.00012 8.25C8.00012 8.66421 7.66433 9 7.25012 9C6.83591 9 6.50012 8.66421 6.50012 8.25V5.25C6.50012 4.83579 6.83591 4.5 7.25012 4.5C7.66433 4.5 8.00012 4.83579 8.00012 5.25V8.25Z" fill="#5E617B"/>
</g>
<defs>
<clipPath id="clip0_2773_784">
<rect width="12" height="12" fill="white"/>
</clipPath>
</defs>
</svg>
